<?xml version="1.0" standalone="no"?>
<!DOCTYPE svg PUBLIC "-//W3C//DTD SVG 20010904//EN"
 "http://www.w3.org/TR/2001/REC-SVG-20010904/DTD/svg10.dtd">
<svg version="1.0" xmlns="http://www.w3.org/2000/svg"
 width="539.000000pt" height="454.000000pt" viewBox="0 0 539.000000 454.000000"
 preserveAspectRatio="xMidYMid meet">

<g transform="translate(0.000000,454.000000) scale(0.100000,-0.100000)"
fill="#000000" stroke="none">
<path d="M0 2270 l0 -2270 1348 0 1347 0 -50 32 c-487 311 -773 535 -1116 878
-214 213 -336 352 -481 545 -454 606 -737 1303 -818 2015 -15 134 -23 451 -13
539 l8 75 95 32 c606 208 1449 382 2020 417 30 2 -484 4 -1142 5 l-1198 2 0
-2270z"/>
<path d="M3080 4533 c612 -45 1282 -178 1927 -385 186 -59 191 -62 197 -91 12
-58 6 -430 -9 -573 -139 -1320 -965 -2528 -2314 -3386 l-154 -98 1332 0 1331
0 0 2270 0 2270 -1177 -2 c-648 -1 -1158 -3 -1133 -5z"/>
<path d="M2660 4183 c-665 -33 -1230 -129 -1942 -330 l-128 -36 0 -51 c0 -157
47 -468 105 -696 174 -686 527 -1304 1045 -1834 190 -194 338 -324 555 -486
150 -112 404 -280 423 -280 17 0 361 233 477 323 338 261 643 571 884 897 416
562 683 1246 751 1919 5 57 10 127 10 157 l0 53 -67 20 c-344 101 -799 206
-1138 261 -344 57 -773 93 -975 83z m-720 -690 c0 -5 -68 -84 -150 -178 -174
-196 -167 -174 -95 -320 66 -132 165 -265 295 -395 116 -116 275 -247 283
-233 15 26 147 325 147 334 0 6 -34 87 -75 180 -41 93 -75 172 -75 174 0 3
198 5 440 5 242 0 440 -3 440 -7 0 -5 -34 -85 -76 -180 l-77 -172 73 -163 c41
-90 77 -167 81 -172 11 -13 171 115 284 229 55 55 131 141 167 190 68 91 156
248 178 318 l12 37 -151 172 c-83 94 -151 175 -151 180 0 4 196 8 437 8 l436
0 -6 -107 c-26 -424 -264 -904 -675 -1358 -182 -202 -615 -605 -649 -605 -5 0
-79 178 -164 395 -84 216 -157 389 -160 382 -5 -9 -253 -642 -299 -763 l-10
-25 -28 19 c-64 47 -278 237 -411 367 -558 545 -861 1084 -897 1599 l-7 96
442 0 c242 0 441 -3 441 -7z"/>
</g>
</svg>
