<?xml version="1.0" standalone="no"?>
<!DOCTYPE svg PUBLIC "-//W3C//DTD SVG 20010904//EN"
 "http://www.w3.org/TR/2001/REC-SVG-20010904/DTD/svg10.dtd">
<svg version="1.0" xmlns="http://www.w3.org/2000/svg"
 width="661.000000pt" height="600.000000pt" viewBox="0 0 661.000000 600.000000"
 preserveAspectRatio="xMidYMid meet">

<g transform="translate(0.000000,600.000000) scale(0.100000,-0.100000)"
fill="#000000" stroke="none">
<path d="M2 5648 c0 -194 4 -331 7 -304 4 35 12 52 26 60 11 6 23 15 26 19 3
5 9 8 13 7 3 -1 19 1 34 4 15 4 37 8 49 11 12 2 37 10 55 19 52 24 160 56 169
51 4 -3 10 -1 14 5 3 5 15 10 26 10 10 0 19 5 19 10 0 6 10 10 23 10 12 0 47
9 77 20 30 12 73 23 94 26 22 3 47 9 57 15 10 5 27 9 38 9 12 0 21 4 21 9 0 8
41 18 103 25 15 1 30 6 34 9 3 4 19 7 34 7 15 0 30 4 33 9 3 5 18 11 33 14 16
3 46 10 68 16 22 6 72 18 110 26 39 8 84 17 100 20 17 4 39 10 50 15 11 5 34
11 50 13 17 3 48 10 70 16 22 6 57 11 78 11 20 0 37 4 37 8 0 5 21 9 47 11 26
1 51 5 56 8 16 10 139 32 211 39 39 3 76 10 81 14 6 4 35 10 65 13 30 4 80 11
110 16 128 22 199 31 258 31 37 0 62 4 62 11 0 5 3 8 8 6 4 -2 50 0 102 5 52
5 145 13 205 17 61 4 -535 8 -1322 9 l-1433 2 2 -352z"/>
<path d="M3910 5989 c58 -5 141 -13 185 -18 44 -6 130 -15 190 -20 61 -6 126
-13 145 -17 95 -17 149 -26 195 -30 28 -3 54 -10 60 -15 5 -5 29 -9 55 -10 42
0 79 -6 183 -28 23 -5 60 -12 82 -16 22 -4 47 -9 55 -13 14 -5 115 -24 213
-38 20 -4 40 -10 43 -15 3 -5 21 -9 40 -9 19 0 34 -4 34 -9 0 -5 32 -12 70
-16 39 -4 73 -11 76 -16 3 -5 21 -9 40 -9 19 0 34 -4 34 -9 0 -5 15 -11 33
-14 91 -16 153 -30 161 -38 6 -5 23 -9 38 -9 15 0 28 -4 28 -10 0 -5 13 -10
29 -10 17 0 33 -4 36 -10 3 -5 20 -10 36 -10 16 0 46 -7 66 -15 19 -8 48 -15
64 -15 16 0 29 -4 29 -10 0 -5 11 -10 25 -10 14 0 25 -4 25 -8 0 -7 48 -21
133 -39 15 -3 27 -9 27 -14 0 -5 11 -9 25 -9 14 0 33 -4 43 -9 19 -11 52 -23
67 -26 42 -7 75 -19 75 -26 0 -5 11 -9 24 -9 18 0 26 -7 29 -22 2 -13 5 120 6
295 l1 317 -1402 -2 c-816 -1 -1359 -5 -1298 -9z"/>
<path d="M3075 5520 c-121 -4 -267 -12 -325 -19 -58 -6 -148 -16 -200 -21
-183 -20 -577 -81 -775 -121 -436 -88 -850 -188 -1182 -286 l-93 -27 0 -71 c1
-412 139 -1043 339 -1543 433 -1090 1208 -2003 2290 -2699 l174 -112 30 16
c106 54 462 299 652 448 319 251 564 483 859 815 18 19 68 80 112 135 584 726
964 1563 1109 2445 25 153 60 532 51 555 -4 12 -36 23 -196 71 -42 12 -162 44
-355 94 -72 18 -327 78 -495 115 -423 94 -947 171 -1356 200 -220 16 -282 16
-639 5z m-785 -900 c0 -6 -19 -32 -42 -58 -99 -108 -121 -134 -241 -270 l-126
-143 25 -65 c97 -258 314 -547 589 -783 98 -84 210 -171 220 -171 5 0 44 81
105 215 5 11 30 64 55 118 25 54 45 102 45 107 0 5 -45 109 -100 232 -55 123
-100 229 -100 236 0 9 123 12 579 12 319 0 582 -4 585 -9 3 -4 -39 -109 -94
-232 -55 -122 -100 -229 -100 -237 0 -17 34 -94 166 -380 l34 -73 37 28 c244
180 470 411 614 624 61 92 142 244 174 330 l17 47 -206 233 -206 234 577 3
c317 1 578 0 580 -2 8 -8 4 -167 -7 -252 -79 -612 -465 -1274 -1124 -1929
-210 -208 -593 -545 -620 -545 -6 0 -42 80 -80 178 -38 97 -95 242 -126 322
-130 333 -213 540 -215 540 -1 0 -10 -21 -20 -47 -30 -80 -145 -377 -155 -398
-10 -23 -163 -414 -206 -527 -16 -43 -32 -78 -36 -78 -9 0 -157 122 -313 259
-170 149 -501 482 -637 641 -462 542 -726 1059 -798 1566 -20 139 -26 265 -13
277 11 12 1163 8 1163 -3z"/>
<path d="M2 2398 l-2 -2398 1643 0 1642 0 -30 25 c-16 13 -35 24 -41 25 -6 0
-29 13 -50 28 -21 16 -59 39 -84 53 -25 13 -46 27 -48 32 -2 4 -10 7 -18 7 -9
0 -12 5 -9 10 3 6 0 10 -8 10 -8 0 -20 7 -27 15 -7 8 -19 15 -28 15 -8 0 -22
8 -31 18 -17 18 -45 37 -71 49 -8 4 -22 15 -31 25 -9 10 -19 18 -23 18 -4 0
-22 11 -40 25 -18 14 -38 25 -44 25 -7 0 -12 4 -12 9 0 5 -20 22 -44 37 -25
16 -42 32 -40 36 3 4 -2 8 -12 8 -9 0 -27 11 -40 25 -13 14 -30 25 -39 25 -9
0 -14 4 -11 8 3 5 -9 17 -27 27 -18 10 -39 27 -48 37 -9 10 -19 18 -23 18 -7
0 -24 13 -61 48 -13 12 -28 22 -33 22 -6 0 -12 7 -16 15 -3 8 -9 15 -14 15 -5
0 -31 20 -58 45 -26 25 -51 45 -56 45 -4 0 -30 21 -57 48 -85 81 -98 92 -110
92 -6 0 -11 4 -11 8 0 5 -9 19 -20 32 -11 13 -20 20 -20 16 0 -3 -31 24 -70
61 -38 38 -87 84 -109 103 -21 19 -37 39 -34 43 3 5 -3 11 -13 13 -11 3 -30
19 -44 35 -14 17 -54 60 -90 98 -36 37 -96 103 -135 146 -38 43 -87 96 -108
118 -20 22 -37 43 -37 48 0 4 -8 13 -17 18 -10 6 -15 11 -11 11 4 0 -5 13 -20
29 -15 15 -36 41 -47 56 -11 16 -26 34 -33 42 -7 7 -10 13 -5 13 4 0 3 4 -3 8
-6 4 -42 48 -79 97 -38 50 -72 92 -77 93 -4 2 -6 8 -2 13 3 5 1 9 -4 9 -4 0
-19 19 -32 43 -13 23 -28 47 -32 52 -4 6 -19 24 -33 41 -14 18 -25 37 -25 43
0 6 -4 11 -8 11 -4 0 -21 25 -37 55 -17 30 -33 55 -37 55 -5 0 -8 7 -8 15 0 8
-3 15 -8 15 -8 0 -45 65 -48 85 -1 8 -11 23 -22 35 -11 12 -44 68 -72 126 -29
57 -57 104 -61 104 -5 0 -9 9 -9 19 0 11 -4 22 -9 25 -4 3 -35 65 -67 138 -32
73 -61 135 -64 138 -7 6 -60 132 -60 142 0 4 -11 31 -24 60 -48 107 -170 473
-190 571 -3 12 -12 49 -21 82 -27 101 -56 228 -61 270 -3 22 -10 53 -15 70 -5
16 -12 64 -15 105 -3 41 -8 82 -11 90 -3 8 -7 26 -9 40 -7 62 -25 239 -28 275
-1 22 -3 -1039 -4 -2357z"/>
<path d="M6600 4673 c0 -32 -7 -101 -15 -153 -9 -52 -20 -131 -25 -175 -6 -44
-14 -98 -19 -120 -5 -22 -15 -67 -21 -100 -6 -33 -16 -73 -21 -90 -5 -16 -18
-70 -29 -120 -12 -49 -25 -103 -30 -120 -5 -16 -16 -55 -24 -85 -13 -50 -60
-190 -130 -388 -14 -40 -39 -103 -56 -138 -16 -36 -30 -69 -30 -74 0 -8 -34
-83 -132 -290 -17 -36 -34 -67 -38 -70 -3 -3 -18 -30 -33 -60 -15 -30 -42 -81
-60 -112 -17 -31 -51 -90 -74 -131 -23 -41 -48 -81 -56 -88 -7 -8 -30 -43 -51
-79 -36 -62 -73 -118 -99 -150 -7 -8 -23 -33 -37 -55 -13 -22 -27 -42 -30 -45
-3 -3 -14 -18 -24 -35 -23 -35 -27 -41 -61 -79 -14 -16 -25 -32 -25 -35 0 -3
-15 -23 -33 -43 -17 -20 -41 -48 -52 -62 -11 -14 -27 -35 -36 -45 -8 -11 -24
-32 -35 -46 -10 -15 -32 -41 -49 -60 -16 -18 -43 -49 -60 -70 -16 -20 -35 -42
-42 -48 -7 -7 -18 -18 -25 -24 -7 -7 -31 -34 -53 -59 -90 -104 -447 -453 -556
-544 -23 -19 -59 -51 -80 -70 -54 -49 -67 -60 -74 -60 -3 0 -16 -9 -28 -20
-62 -57 -102 -90 -109 -90 -4 0 -23 -16 -42 -35 -20 -19 -39 -35 -43 -35 -5 0
-20 -11 -35 -25 -15 -14 -30 -25 -33 -25 -3 0 -18 -11 -33 -25 -15 -14 -30
-25 -34 -25 -5 0 -22 -14 -40 -30 -17 -17 -33 -28 -35 -26 -3 3 -18 -8 -34
-23 -15 -15 -44 -36 -64 -46 -19 -11 -35 -23 -35 -27 0 -5 -7 -8 -15 -8 -8 0
-15 -4 -15 -8 0 -5 -17 -17 -37 -28 -21 -10 -45 -27 -54 -36 -9 -10 -21 -18
-28 -18 -6 0 -11 -4 -11 -10 0 -5 -11 -12 -25 -16 -14 -3 -25 -10 -25 -15 0
-5 -7 -9 -15 -9 -8 0 -15 -4 -15 -8 0 -5 -17 -17 -37 -28 -21 -10 -46 -27 -57
-37 -11 -9 -39 -26 -62 -37 -23 -12 -52 -30 -64 -40 -23 -20 -15 -20 1613 -20
l1637 0 0 2365 c0 1301 -2 2365 -5 2365 -3 0 -5 -26 -5 -57z"/>
</g>
</svg>
