<?xml version="1.0" standalone="no"?>
<!DOCTYPE svg PUBLIC "-//W3C//DTD SVG 20010904//EN"
 "http://www.w3.org/TR/2001/REC-SVG-20010904/DTD/svg10.dtd">
<svg version="1.0" xmlns="http://www.w3.org/2000/svg"
 width="2228.000000pt" height="639.000000pt" viewBox="0 0 2228.000000 639.000000"
 preserveAspectRatio="xMidYMid meet">

<g transform="translate(0.000000,639.000000) scale(0.100000,-0.100000)"
fill="#000000" stroke="none">
<path d="M2798 6383 l2802 -3 0 -3185 0 -3185 -2802 -3 c-1542 -1 2212 -2
8342 -2 7349 0 8315 1 2838 2 l-8308 3 0 3185 0 3185 8308 3 c5477 1 4511 2
-2838 2 -6130 0 -9884 -1 -8342 -2z"/>
<path d="M0 3200 l0 -2270 2500 0 2500 0 0 2270 0 2270 -2500 0 -2500 0 0
-2270z m2790 1910 c496 -35 1044 -135 1653 -302 l187 -51 0 -91 c0 -244 -80
-650 -192 -976 -309 -896 -932 -1661 -1807 -2221 -68 -43 -127 -79 -131 -79
-4 0 -63 36 -131 79 -875 560 -1498 1325 -1807 2221 -112 326 -192 732 -192
976 l0 91 187 51 c883 242 1636 344 2233 302z"/>
<path d="M2250 5039 c-467 -28 -1124 -147 -1683 -306 l-127 -36 0 -36 c0 -72
32 -310 61 -456 207 -1043 858 -1974 1834 -2622 159 -106 160 -106 188 -92 46
25 266 175 372 254 319 240 615 529 846 825 445 571 725 1242 804 1925 8 71
15 146 15 166 l0 37 -147 40 c-601 167 -1191 272 -1688 302 -190 11 -277 11
-475 -1z m-520 -616 c0 -5 -69 -87 -154 -183 l-154 -175 19 -47 c90 -228 287
-473 539 -667 l76 -59 77 169 76 170 -78 177 -79 177 224 3 c123 1 325 1 448
0 l224 -3 -79 -177 -78 -177 76 -170 77 -169 76 59 c252 194 449 439 539 667
l19 47 -154 175 c-85 96 -154 178 -154 183 0 4 199 7 441 7 l442 0 -6 -117
c-16 -304 -147 -641 -385 -988 -208 -304 -517 -630 -871 -919 -54 -44 -75 -56
-81 -46 -4 7 -75 183 -156 391 -82 209 -151 379 -154 379 -4 0 -73 -170 -154
-378 -81 -208 -151 -385 -156 -392 -9 -15 -72 33 -249 190 -440 389 -763 797
-937 1182 -77 171 -138 392 -149 540 -3 40 -8 92 -10 116 l-5 42 445 0 c245 0
445 -3 445 -7z"/>
<path d="M8850 5433 c-143 -24 -276 -113 -319 -213 l-21 -49 2 -1213 c3 -1163
4 -1215 22 -1251 42 -85 148 -160 272 -192 88 -23 869 -22 958 1 138 36 251
127 281 227 23 76 23 2378 0 2454 -30 101 -138 187 -279 223 -74 19 -108 20
-485 19 -223 -1 -417 -4 -431 -6z m750 -1468 l0 -1195 -315 0 -315 0 0 1195 0
1195 315 0 315 0 0 -1195z"/>
<path d="M13480 5433 c-143 -24 -276 -113 -319 -213 l-21 -49 2 -1213 c3
-1163 4 -1215 22 -1251 42 -85 148 -160 272 -192 88 -23 869 -22 958 1 138 36
251 127 281 227 23 76 23 2378 0 2454 -30 101 -138 187 -279 223 -74 19 -108
20 -485 19 -223 -1 -417 -4 -431 -6z m750 -1468 l0 -1195 -315 0 -315 0 0
1195 0 1195 315 0 315 0 0 -1195z"/>
<path d="M18933 5425 c-122 -27 -239 -109 -282 -199 -21 -42 -21 -50 -21
-1257 0 -1174 1 -1215 20 -1256 40 -89 144 -164 275 -198 89 -23 869 -22 958
1 126 32 217 98 261 187 l26 51 0 288 0 288 -230 0 -230 0 0 -280 0 -280 -310
0 -310 0 0 1195 0 1195 310 0 310 0 0 -245 0 -245 230 0 230 0 0 258 c0 291
-3 305 -78 380 -56 56 -116 89 -207 112 -72 18 -109 20 -484 19 -302 0 -422
-4 -468 -14z"/>
<path d="M21130 5419 c-140 -36 -246 -123 -276 -226 -13 -43 -15 -101 -12
-321 3 -263 3 -268 29 -322 16 -35 195 -264 487 -625 l462 -570 0 -292 0 -293
-260 0 -260 0 0 225 0 225 -230 0 -230 0 0 -213 c0 -161 4 -226 15 -264 30
-100 143 -191 281 -227 89 -23 761 -23 849 -1 126 33 228 104 270 190 19 37
20 61 20 370 l0 330 -27 55 c-16 32 -221 291 -488 619 l-460 564 0 258 0 259
260 0 260 0 0 -225 0 -225 230 0 230 0 0 233 c0 222 -1 234 -24 282 -27 59
-94 124 -166 160 -96 49 -154 55 -535 54 -314 0 -358 -2 -425 -20z"/>
<path d="M6270 3970 l0 -1440 230 0 230 0 0 575 0 575 174 0 c158 0 175 -2
180 -17 3 -10 67 -252 141 -538 75 -286 140 -537 146 -557 l10 -38 240 0 c224
0 240 1 235 18 -3 9 -75 269 -161 577 -86 308 -158 567 -160 575 -3 10 13 24
50 44 67 35 127 91 157 148 l23 43 3 589 c3 670 4 658 -72 743 -25 27 -71 64
-104 81 -113 60 -129 62 -754 62 l-568 0 0 -1440z m1040 565 l0 -595 -290 0
-290 0 0 595 0 595 290 0 290 0 0 -595z"/>
<path d="M10850 3964 l0 -1445 598 3 c542 4 602 6 652 22 127 42 221 111 260
190 19 41 20 58 20 588 l0 545 -23 34 c-29 44 -104 94 -173 116 l-54 17 46 17
c63 24 114 62 144 106 l25 37 3 459 c2 389 0 467 -13 512 -29 102 -141 193
-281 229 -53 14 -144 16 -633 16 l-571 0 0 -1446z m1040 691 l0 -485 -290 0
-290 0 0 485 0 485 290 0 290 0 0 -485z m40 -1305 l0 -550 -310 0 -310 0 0
550 0 550 310 0 310 0 0 -550z"/>
<path d="M15300 5270 l0 -140 240 0 240 0 0 -1300 0 -1300 235 0 235 0 0 1300
0 1300 240 0 240 0 0 140 0 140 -715 0 -715 0 0 -140z"/>
<path d="M17380 3970 l0 -1440 230 0 230 0 0 1440 0 1440 -230 0 -230 0 0
-1440z"/>
<path d="M6334 1651 c-23 -10 -44 -26 -47 -36 -4 -9 -7 -155 -7 -324 l0 -308
23 -21 c38 -36 80 -42 274 -42 188 0 221 5 261 42 19 19 22 31 22 100 l0 78
-90 0 -90 0 0 -70 0 -70 -110 0 -110 0 0 300 0 300 110 0 110 0 0 -65 0 -65
90 0 90 0 0 64 c0 82 -5 93 -51 116 -34 18 -59 20 -236 20 -171 0 -204 -3
-239 -19z"/>
<path d="M7164 1651 c-23 -10 -44 -26 -47 -36 -4 -9 -7 -155 -7 -324 l0 -308
23 -21 c38 -36 80 -42 274 -42 194 0 252 11 273 51 6 10 10 148 10 333 l0 315
-32 23 c-32 22 -41 23 -243 26 -188 2 -214 0 -251 -17z m356 -351 l0 -300
-115 0 -115 0 0 300 0 300 115 0 115 0 0 -300z"/>
<path d="M7980 1300 l0 -370 220 0 220 0 0 35 0 35 -135 0 -135 0 0 335 0 335
-85 0 -85 0 0 -370z"/>
<path d="M8660 1300 l0 -370 220 0 220 0 0 35 0 35 -135 0 -135 0 0 335 0 335
-85 0 -85 0 0 -370z"/>
<path d="M9340 1300 l0 -370 240 0 240 0 0 35 0 35 -155 0 -155 0 0 130 0 130
130 0 130 0 0 35 0 35 -130 0 -130 0 0 130 0 130 155 0 155 0 0 40 0 40 -240
0 -240 0 0 -370z"/>
<path d="M10114 1651 c-23 -10 -44 -26 -47 -36 -4 -9 -7 -155 -7 -324 l0 -308
23 -21 c38 -35 80 -42 272 -42 192 0 234 7 272 42 22 21 23 27 23 180 l0 158
-140 0 -140 0 0 -40 0 -40 55 0 55 0 0 -110 0 -110 -120 0 -120 0 0 300 0 300
110 0 110 0 0 -65 0 -65 90 0 90 0 0 64 c0 82 -5 93 -51 116 -34 18 -59 20
-236 20 -171 0 -204 -3 -239 -19z"/>
<path d="M10920 1300 l0 -370 240 0 240 0 0 35 0 35 -155 0 -155 0 0 130 0
130 130 0 130 0 0 35 0 35 -130 0 -130 0 0 130 0 130 155 0 155 0 0 40 0 40
-240 0 -240 0 0 -370z"/>
<path d="M12174 1651 c-23 -10 -44 -26 -47 -36 -4 -9 -7 -155 -7 -324 l0 -308
23 -21 c38 -36 80 -42 274 -42 194 0 252 11 273 51 6 10 10 148 10 333 l0 315
-32 23 c-32 22 -41 23 -243 26 -188 2 -214 0 -251 -17z m356 -351 l0 -300
-115 0 -115 0 0 300 0 300 115 0 115 0 0 -300z"/>
<path d="M12990 1300 l0 -370 85 0 85 0 0 150 0 150 130 0 130 0 0 35 0 35
-130 0 -130 0 0 145 0 145 155 0 155 0 0 40 0 40 -240 0 -240 0 0 -370z"/>
<path d="M14190 1300 l0 -370 240 0 240 0 0 35 0 35 -155 0 -155 0 0 130 0
130 130 0 130 0 0 35 0 35 -130 0 -130 0 0 130 0 130 155 0 155 0 0 40 0 40
-240 0 -240 0 0 -370z"/>
<path d="M14920 1300 l0 -370 85 0 85 0 0 330 0 330 120 0 120 0 0 -330 0
-330 90 0 90 0 0 338 c0 310 -1 340 -17 354 -39 34 -71 42 -183 46 -104 4
-150 -1 -202 -23 -13 -5 -18 -2 -18 9 0 13 -14 16 -85 16 l-85 0 0 -370z"/>
<path d="M15844 1651 c-23 -10 -44 -26 -47 -36 -4 -9 -7 -155 -7 -324 l0 -308
23 -21 c38 -35 80 -42 272 -42 192 0 234 7 272 42 22 21 23 27 23 180 l0 158
-140 0 -140 0 0 -40 0 -40 55 0 55 0 0 -110 0 -110 -120 0 -120 0 0 300 0 300
110 0 110 0 0 -65 0 -65 90 0 90 0 0 64 c0 82 -5 93 -51 116 -34 18 -59 20
-236 20 -171 0 -204 -3 -239 -19z"/>
<path d="M16650 1300 l0 -370 85 0 85 0 0 370 0 370 -85 0 -85 0 0 -370z"/>
<path d="M17120 1300 l0 -370 85 0 85 0 0 330 0 330 120 0 120 0 0 -330 0
-330 90 0 90 0 0 338 c0 310 -1 340 -17 354 -39 34 -71 42 -183 46 -104 4
-150 -1 -202 -23 -13 -5 -18 -2 -18 9 0 13 -14 16 -85 16 l-85 0 0 -370z"/>
<path d="M18010 1300 l0 -370 240 0 240 0 0 35 0 35 -155 0 -155 0 0 130 0
130 130 0 130 0 0 35 0 35 -130 0 -130 0 0 130 0 130 155 0 155 0 0 40 0 40
-240 0 -240 0 0 -370z"/>
<path d="M18730 1300 l0 -370 240 0 240 0 0 35 0 35 -155 0 -155 0 0 130 0
130 130 0 130 0 0 35 0 35 -130 0 -130 0 0 130 0 130 155 0 155 0 0 40 0 40
-240 0 -240 0 0 -370z"/>
<path d="M19460 1300 l0 -370 85 0 85 0 0 145 0 145 64 0 64 0 54 -142 54
-143 92 -3 c51 -1 92 0 92 3 0 3 -26 69 -57 147 -53 134 -55 142 -38 152 10 6
29 21 42 33 22 21 23 28 23 178 0 150 -1 157 -23 179 -36 36 -109 46 -332 46
l-205 0 0 -370z m380 140 l0 -150 -105 0 -105 0 0 150 0 150 105 0 105 0 0
-150z"/>
<path d="M20300 1300 l0 -370 85 0 85 0 0 370 0 370 -85 0 -85 0 0 -370z"/>
<path d="M20770 1300 l0 -370 85 0 85 0 0 330 0 330 120 0 120 0 0 -330 0
-330 90 0 90 0 0 338 c0 310 -1 340 -17 354 -39 34 -71 42 -183 46 -104 4
-150 -1 -202 -23 -13 -5 -18 -2 -18 9 0 13 -14 16 -85 16 l-85 0 0 -370z"/>
<path d="M21694 1651 c-23 -10 -44 -26 -47 -36 -4 -9 -7 -155 -7 -324 l0 -308
23 -21 c38 -35 80 -42 272 -42 192 0 234 7 272 42 22 21 23 27 23 180 l0 158
-140 0 -140 0 0 -40 0 -40 55 0 55 0 0 -110 0 -110 -120 0 -120 0 0 300 0 300
110 0 110 0 0 -65 0 -65 90 0 90 0 0 64 c0 82 -5 93 -51 116 -34 18 -59 20
-236 20 -171 0 -204 -3 -239 -19z"/>
</g>
</svg>
